<svg version="1.1" xmlns="http://www.w3.org/2000/svg" xmlns:xlink="http://www.w3.org/1999/xlink" width="31" height="46"><defs/><g><path fill="rgb(0,0,0)" stroke="none" paint-order="stroke fill markers" fill-rule="evenodd" d=" M 29.73908305168152 3.187475264072418 C 29.73908305168152 3.187475264072418 9.021098613739014 23.501250982284546 9.021098613739014 23.501250982284546 C 9.021098613739014 23.501250982284546 29.714365005493164 43.86184060573578 29.714365005493164 43.86184060573578 C 29.849965572357178 43.98083555698395 29.935355186462402 44.15494638681412 29.935355186462402 44.34796726703644 C 29.935355186462402 44.70679700374603 29.642070531845093 44.99759668111801 29.279513359069824 44.999672174453735 C 29.277576208114624 44.999672174453735 29.275716543197632 44.999672174453735 29.27377939224243 44.999672174453735 C 29.129732847213745 44.999672174453735 28.984988927841187 44.9533194899559 28.86395573616028 44.85853862762451 C 28.86395573616028 44.85853862762451 2.249903678894043 24.010899901390076 2.249903678894043 24.010899901390076 C 2.091987133026123 23.88706213235855 1.9999337196350098 23.698884069919586 2.000166177749634 23.49986732006073 C 2.00032114982605 23.300850570201874 2.092607021331787 23.11267250776291 2.250756025314331 22.989295959472656 C 2.250756025314331 22.989295959472656 28.864808082580566 2.21406888961792 28.864808082580566 2.21406888961792 C 29.13926362991333 1.9996012449264526 29.53560471534729 2.0341928005218506 29.76775288581848 2.2929376363754272 C 29.99997854232788 2.551451861858368 29.987348318099976 2.9437201023101807 29.73908305168152 3.187475264072418 Z"/></g></svg>