<svg version="1.1" xmlns="http://www.w3.org/2000/svg" xmlns:xlink="http://www.w3.org/1999/xlink" width="31" height="46"><defs/><g><path fill="rgb(0,0,0)" stroke="none" paint-order="stroke fill markers" fill-rule="evenodd" d=" M 2.2608046531677246 43.812028765678406 C 2.2608046531677246 43.812028765678406 22.97878909111023 23.498253047466278 22.97878909111023 23.498253047466278 C 22.97878909111023 23.498253047466278 2.285522699356079 3.137663424015045 2.285522699356079 3.137663424015045 C 2.1499221324920654 3.0184378623962402 2.064455032348633 2.8447882533073425 2.064455032348633 2.651075541973114 C 2.064455032348633 2.2924764156341553 2.3577396869659424 2.0016767382621765 2.720296859741211 1.9996012449264526 C 2.722234010696411 1.9996012449264526 2.7240936756134033 1.9996012449264526 2.7260308265686035 1.9996012449264526 C 2.87007737159729 1.9996012449264526 3.0148987770080566 2.045953929424286 3.135854482650757 2.1407347917556763 C 3.135854482650757 2.1407347917556763 29.7499840259552 22.98860412836075 29.7499840259552 22.98860412836075 C 29.90790057182312 23.112211287021637 29.999876499176025 23.300619959831238 29.99972152709961 23.499636709690094 C 29.999566555023193 23.698422849178314 29.907280683517456 23.88660091161728 29.749131679534912 24.009746849536896 C 29.749131679534912 24.009746849536896 3.1350021362304688 44.785435140132904 3.1350021362304688 44.785435140132904 C 2.860624074935913 44.999672174453735 2.464282989501953 44.96508061885834 2.2321348190307617 44.7065663933754 C 1.9999091625213623 44.448052167892456 2.0125393867492676 44.05532270669937 2.2608046531677246 43.812028765678406 Z"/></g></svg>